<mxfile host="app.diagrams.net" agent="Mozilla/5.0 (Macintosh; Intel Mac OS X 10_15_7) AppleWebKit/537.36 (KHTML, like Gecko) Chrome/116.0.0.0 Safari/537.36" version="26.0.16">
  <diagram name="Page-1" id="P9pU9wxMOKHuX3EtcHgD">
    <mxGraphModel dx="2284" dy="1922" grid="1" gridSize="10" guides="1" tooltips="1" connect="1" arrows="1" fold="1" page="1" pageScale="1" pageWidth="850" pageHeight="1100" math="0" shadow="0">
      <root>
        <mxCell id="0" />
        <mxCell id="1" parent="0" />
        <mxCell id="ZZ9XeQo50VW3FPfhGWlt-152" value="" style="rounded=0;whiteSpace=wrap;html=1;dashed=1;fillColor=default;gradientColor=none;" vertex="1" parent="1">
          <mxGeometry x="-600" y="-80" width="370" height="60" as="geometry" />
        </mxCell>
        <mxCell id="ZZ9XeQo50VW3FPfhGWlt-1" value="" style="rounded=1;whiteSpace=wrap;html=1;gradientColor=none;fillStyle=auto;fillColor=#F0F0F0;strokeWidth=2;" vertex="1" parent="1">
          <mxGeometry x="-780" y="-570" width="1650" height="6680" as="geometry" />
        </mxCell>
        <mxCell id="ZZ9XeQo50VW3FPfhGWlt-7" value="Origin Server A" style="rounded=1;whiteSpace=wrap;html=1;" vertex="1" parent="1">
          <mxGeometry x="-480" y="-60" width="120" height="60" as="geometry" />
        </mxCell>
        <mxCell id="ZZ9XeQo50VW3FPfhGWlt-12" value="Message&lt;div&gt;Queue&lt;/div&gt;" style="shape=cylinder3;whiteSpace=wrap;html=1;boundedLbl=1;backgroundOutline=1;size=15;" vertex="1" parent="1">
          <mxGeometry x="310" y="40" width="60" height="80" as="geometry" />
        </mxCell>
        <mxCell id="ZZ9XeQo50VW3FPfhGWlt-19" value="Trainer" style="rounded=1;whiteSpace=wrap;html=1;" vertex="1" parent="1">
          <mxGeometry x="-20" y="-320" width="90" height="40" as="geometry" />
        </mxCell>
        <mxCell id="ZZ9XeQo50VW3FPfhGWlt-397" style="edgeStyle=orthogonalEdgeStyle;rounded=0;orthogonalLoop=1;jettySize=auto;html=1;entryX=0.5;entryY=1;entryDx=0;entryDy=0;" edge="1" parent="1" source="ZZ9XeQo50VW3FPfhGWlt-20" target="ZZ9XeQo50VW3FPfhGWlt-395">
          <mxGeometry relative="1" as="geometry" />
        </mxCell>
        <mxCell id="ZZ9XeQo50VW3FPfhGWlt-20" value="&lt;b&gt;&lt;font style=&quot;font-size: 18px;&quot;&gt;AI Center&amp;nbsp;&lt;/font&gt;&lt;span style=&quot;font-size: medium; background-color: transparent;&quot;&gt;GPU&lt;/span&gt;&lt;/b&gt;" style="rounded=1;whiteSpace=wrap;html=1;" vertex="1" parent="1">
          <mxGeometry x="-70" y="-360" width="190" height="220" as="geometry" />
        </mxCell>
        <mxCell id="ZZ9XeQo50VW3FPfhGWlt-21" value="Route API" style="rounded=1;whiteSpace=wrap;html=1;" vertex="1" parent="1">
          <mxGeometry x="-55" y="-185" width="160" height="20" as="geometry" />
        </mxCell>
        <mxCell id="ZZ9XeQo50VW3FPfhGWlt-23" value="&lt;span style=&quot;-webkit-font-smoothing: antialiased; box-sizing: border-box; -webkit-tap-highlight-color: rgba(0, 0, 0, 0); color: initial; line-height: var(--md-box-samantha-normal-text-line-height); overflow-anchor: auto; text-align: left; background-color: rgb(255, 255, 255);&quot;&gt;&lt;font face=&quot;Helvetica&quot; style=&quot;font-size: 12px;&quot;&gt;Intelligent Computing Platform Layer&lt;/font&gt;&lt;/span&gt;" style="rounded=1;whiteSpace=wrap;html=1;" vertex="1" parent="1">
          <mxGeometry x="-55" y="-310" width="160" height="40" as="geometry" />
        </mxCell>
        <mxCell id="ZZ9XeQo50VW3FPfhGWlt-25" value="&lt;span style=&quot;-webkit-font-smoothing: antialiased; box-sizing: border-box; -webkit-tap-highlight-color: rgba(0, 0, 0, 0); color: initial; line-height: var(--md-box-samantha-normal-text-line-height); overflow-anchor: auto; text-align: left; background-color: rgb(255, 255, 255);&quot;&gt;&lt;font style=&quot;font-size: 12px;&quot; face=&quot;Helvetica&quot;&gt;Computing Power Implementation Layer&amp;nbsp;&lt;/font&gt;&lt;/span&gt;" style="rounded=1;whiteSpace=wrap;html=1;" vertex="1" parent="1">
          <mxGeometry x="-55" y="-350" width="160" height="40" as="geometry" />
        </mxCell>
        <mxCell id="ZZ9XeQo50VW3FPfhGWlt-29" value="Origin Server B" style="rounded=1;whiteSpace=wrap;html=1;" vertex="1" parent="1">
          <mxGeometry x="43" y="-60" width="120" height="60" as="geometry" />
        </mxCell>
        <mxCell id="ZZ9XeQo50VW3FPfhGWlt-30" value="Origin Server C" style="rounded=1;whiteSpace=wrap;html=1;" vertex="1" parent="1">
          <mxGeometry x="442" y="-60" width="120" height="60" as="geometry" />
        </mxCell>
        <mxCell id="ZZ9XeQo50VW3FPfhGWlt-34" value="First Layer Region" style="rounded=1;whiteSpace=wrap;html=1;" vertex="1" parent="1">
          <mxGeometry x="-255" y="4240" width="250" height="260" as="geometry" />
        </mxCell>
        <mxCell id="ZZ9XeQo50VW3FPfhGWlt-35" value="Prober" style="rounded=1;whiteSpace=wrap;html=1;" vertex="1" parent="1">
          <mxGeometry x="-235" y="4330" width="70" height="30" as="geometry" />
        </mxCell>
        <mxCell id="ZZ9XeQo50VW3FPfhGWlt-36" value="Edge Server" style="rounded=1;whiteSpace=wrap;html=1;" vertex="1" parent="1">
          <mxGeometry x="-235" y="4380" width="70" height="60" as="geometry" />
        </mxCell>
        <mxCell id="ZZ9XeQo50VW3FPfhGWlt-37" value="Edge Server" style="rounded=1;whiteSpace=wrap;html=1;" vertex="1" parent="1">
          <mxGeometry x="-165" y="4380" width="70" height="60" as="geometry" />
        </mxCell>
        <mxCell id="ZZ9XeQo50VW3FPfhGWlt-38" value="Edge Server" style="rounded=1;whiteSpace=wrap;html=1;" vertex="1" parent="1">
          <mxGeometry x="-95" y="4380" width="70" height="60" as="geometry" />
        </mxCell>
        <mxCell id="ZZ9XeQo50VW3FPfhGWlt-39" value="Load Balancer" style="rounded=1;whiteSpace=wrap;html=1;" vertex="1" parent="1">
          <mxGeometry x="-175" y="4470" width="120" height="20" as="geometry" />
        </mxCell>
        <mxCell id="ZZ9XeQo50VW3FPfhGWlt-40" value="Prober" style="rounded=1;whiteSpace=wrap;html=1;" vertex="1" parent="1">
          <mxGeometry x="-165" y="4330" width="70" height="30" as="geometry" />
        </mxCell>
        <mxCell id="ZZ9XeQo50VW3FPfhGWlt-41" value="Prober" style="rounded=1;whiteSpace=wrap;html=1;" vertex="1" parent="1">
          <mxGeometry x="-95" y="4330" width="70" height="30" as="geometry" />
        </mxCell>
        <mxCell id="ZZ9XeQo50VW3FPfhGWlt-42" value="First Layer Region" style="rounded=1;whiteSpace=wrap;html=1;" vertex="1" parent="1">
          <mxGeometry x="-585" y="4240" width="250" height="260" as="geometry" />
        </mxCell>
        <mxCell id="ZZ9XeQo50VW3FPfhGWlt-43" value="Prober" style="rounded=1;whiteSpace=wrap;html=1;" vertex="1" parent="1">
          <mxGeometry x="-565" y="4330" width="70" height="30" as="geometry" />
        </mxCell>
        <mxCell id="ZZ9XeQo50VW3FPfhGWlt-44" value="Edge Server" style="rounded=1;whiteSpace=wrap;html=1;" vertex="1" parent="1">
          <mxGeometry x="-565" y="4380" width="70" height="60" as="geometry" />
        </mxCell>
        <mxCell id="ZZ9XeQo50VW3FPfhGWlt-45" value="Edge Server" style="rounded=1;whiteSpace=wrap;html=1;" vertex="1" parent="1">
          <mxGeometry x="-495" y="4380" width="70" height="60" as="geometry" />
        </mxCell>
        <mxCell id="ZZ9XeQo50VW3FPfhGWlt-46" value="Edge Server" style="rounded=1;whiteSpace=wrap;html=1;" vertex="1" parent="1">
          <mxGeometry x="-425" y="4380" width="70" height="60" as="geometry" />
        </mxCell>
        <mxCell id="ZZ9XeQo50VW3FPfhGWlt-47" value="Load Balancer" style="rounded=1;whiteSpace=wrap;html=1;" vertex="1" parent="1">
          <mxGeometry x="-505" y="4470" width="120" height="20" as="geometry" />
        </mxCell>
        <mxCell id="ZZ9XeQo50VW3FPfhGWlt-48" value="Prober" style="rounded=1;whiteSpace=wrap;html=1;" vertex="1" parent="1">
          <mxGeometry x="-495" y="4330" width="70" height="30" as="geometry" />
        </mxCell>
        <mxCell id="ZZ9XeQo50VW3FPfhGWlt-49" value="Prober" style="rounded=1;whiteSpace=wrap;html=1;" vertex="1" parent="1">
          <mxGeometry x="-425" y="4330" width="70" height="30" as="geometry" />
        </mxCell>
        <mxCell id="ZZ9XeQo50VW3FPfhGWlt-50" value="&lt;font style=&quot;font-size: 18px;&quot;&gt;&lt;b&gt;Second Layer Region&lt;/b&gt;&lt;/font&gt;" style="rounded=1;whiteSpace=wrap;html=1;glass=0;shadow=0;" vertex="1" parent="1">
          <mxGeometry x="-260" y="187" width="200" height="180" as="geometry" />
        </mxCell>
        <mxCell id="ZZ9XeQo50VW3FPfhGWlt-151" style="edgeStyle=orthogonalEdgeStyle;rounded=0;orthogonalLoop=1;jettySize=auto;html=1;entryX=1;entryY=0.5;entryDx=0;entryDy=0;fillColor=#e51400;strokeColor=#B20000;strokeWidth=2;" edge="1" parent="1" source="ZZ9XeQo50VW3FPfhGWlt-51" target="ZZ9XeQo50VW3FPfhGWlt-7">
          <mxGeometry relative="1" as="geometry">
            <Array as="points">
              <mxPoint x="-205" y="-30" />
            </Array>
          </mxGeometry>
        </mxCell>
        <mxCell id="ZZ9XeQo50VW3FPfhGWlt-257" value="probe" style="edgeLabel;html=1;align=center;verticalAlign=middle;resizable=0;points=[];" vertex="1" connectable="0" parent="ZZ9XeQo50VW3FPfhGWlt-151">
          <mxGeometry x="-0.4778" y="1" relative="1" as="geometry">
            <mxPoint as="offset" />
          </mxGeometry>
        </mxCell>
        <mxCell id="ZZ9XeQo50VW3FPfhGWlt-51" value="Prober" style="rounded=1;whiteSpace=wrap;html=1;" vertex="1" parent="1">
          <mxGeometry x="-250" y="198" width="90" height="30" as="geometry" />
        </mxCell>
        <mxCell id="ZZ9XeQo50VW3FPfhGWlt-55" value="Load Balancer" style="rounded=1;whiteSpace=wrap;html=1;" vertex="1" parent="1">
          <mxGeometry x="-250" y="337" width="180" height="20" as="geometry" />
        </mxCell>
        <mxCell id="ZZ9XeQo50VW3FPfhGWlt-153" style="edgeStyle=orthogonalEdgeStyle;rounded=0;orthogonalLoop=1;jettySize=auto;html=1;entryX=0;entryY=0.5;entryDx=0;entryDy=0;" edge="1" parent="1" source="ZZ9XeQo50VW3FPfhGWlt-56" target="ZZ9XeQo50VW3FPfhGWlt-77">
          <mxGeometry relative="1" as="geometry" />
        </mxCell>
        <mxCell id="ZZ9XeQo50VW3FPfhGWlt-56" value="Prober" style="rounded=1;whiteSpace=wrap;html=1;" vertex="1" parent="1">
          <mxGeometry x="-160" y="198" width="90" height="30" as="geometry" />
        </mxCell>
        <mxCell id="ZZ9XeQo50VW3FPfhGWlt-5" value="Forwarded server" style="rounded=1;whiteSpace=wrap;html=1;" vertex="1" parent="1">
          <mxGeometry x="-250" y="297" width="90" height="30" as="geometry" />
        </mxCell>
        <mxCell id="ZZ9XeQo50VW3FPfhGWlt-58" value="Forwarded server" style="rounded=1;whiteSpace=wrap;html=1;" vertex="1" parent="1">
          <mxGeometry x="-160" y="297" width="90" height="30" as="geometry" />
        </mxCell>
        <mxCell id="ZZ9XeQo50VW3FPfhGWlt-60" value="First Layer Region" style="rounded=1;whiteSpace=wrap;html=1;" vertex="1" parent="1">
          <mxGeometry x="385" y="4240" width="250" height="260" as="geometry" />
        </mxCell>
        <mxCell id="ZZ9XeQo50VW3FPfhGWlt-61" value="Prober" style="rounded=1;whiteSpace=wrap;html=1;" vertex="1" parent="1">
          <mxGeometry x="405" y="4330" width="70" height="30" as="geometry" />
        </mxCell>
        <mxCell id="ZZ9XeQo50VW3FPfhGWlt-62" value="Edge Server" style="rounded=1;whiteSpace=wrap;html=1;" vertex="1" parent="1">
          <mxGeometry x="405" y="4380" width="70" height="60" as="geometry" />
        </mxCell>
        <mxCell id="ZZ9XeQo50VW3FPfhGWlt-63" value="Edge Server" style="rounded=1;whiteSpace=wrap;html=1;" vertex="1" parent="1">
          <mxGeometry x="475" y="4380" width="70" height="60" as="geometry" />
        </mxCell>
        <mxCell id="ZZ9XeQo50VW3FPfhGWlt-64" value="Edge Server" style="rounded=1;whiteSpace=wrap;html=1;" vertex="1" parent="1">
          <mxGeometry x="545" y="4380" width="70" height="60" as="geometry" />
        </mxCell>
        <mxCell id="ZZ9XeQo50VW3FPfhGWlt-65" value="Load Balancer" style="rounded=1;whiteSpace=wrap;html=1;" vertex="1" parent="1">
          <mxGeometry x="465" y="4470" width="120" height="20" as="geometry" />
        </mxCell>
        <mxCell id="ZZ9XeQo50VW3FPfhGWlt-66" value="Prober" style="rounded=1;whiteSpace=wrap;html=1;" vertex="1" parent="1">
          <mxGeometry x="475" y="4330" width="70" height="30" as="geometry" />
        </mxCell>
        <mxCell id="ZZ9XeQo50VW3FPfhGWlt-67" value="Prober" style="rounded=1;whiteSpace=wrap;html=1;" vertex="1" parent="1">
          <mxGeometry x="545" y="4330" width="70" height="30" as="geometry" />
        </mxCell>
        <mxCell id="ZZ9XeQo50VW3FPfhGWlt-68" value="First Layer Region" style="rounded=1;whiteSpace=wrap;html=1;" vertex="1" parent="1">
          <mxGeometry x="55" y="4240" width="250" height="260" as="geometry" />
        </mxCell>
        <mxCell id="ZZ9XeQo50VW3FPfhGWlt-69" value="Prober" style="rounded=1;whiteSpace=wrap;html=1;" vertex="1" parent="1">
          <mxGeometry x="75" y="4330" width="70" height="30" as="geometry" />
        </mxCell>
        <mxCell id="ZZ9XeQo50VW3FPfhGWlt-70" value="Edge Server" style="rounded=1;whiteSpace=wrap;html=1;" vertex="1" parent="1">
          <mxGeometry x="75" y="4380" width="70" height="60" as="geometry" />
        </mxCell>
        <mxCell id="ZZ9XeQo50VW3FPfhGWlt-71" value="Edge Server" style="rounded=1;whiteSpace=wrap;html=1;" vertex="1" parent="1">
          <mxGeometry x="145" y="4380" width="70" height="60" as="geometry" />
        </mxCell>
        <mxCell id="ZZ9XeQo50VW3FPfhGWlt-72" value="Edge Server" style="rounded=1;whiteSpace=wrap;html=1;" vertex="1" parent="1">
          <mxGeometry x="215" y="4380" width="70" height="60" as="geometry" />
        </mxCell>
        <mxCell id="ZZ9XeQo50VW3FPfhGWlt-73" value="Load Balancer" style="rounded=1;whiteSpace=wrap;html=1;" vertex="1" parent="1">
          <mxGeometry x="135" y="4470" width="120" height="20" as="geometry" />
        </mxCell>
        <mxCell id="ZZ9XeQo50VW3FPfhGWlt-74" value="Prober" style="rounded=1;whiteSpace=wrap;html=1;" vertex="1" parent="1">
          <mxGeometry x="145" y="4330" width="70" height="30" as="geometry" />
        </mxCell>
        <mxCell id="ZZ9XeQo50VW3FPfhGWlt-75" value="Prober" style="rounded=1;whiteSpace=wrap;html=1;" vertex="1" parent="1">
          <mxGeometry x="215" y="4330" width="70" height="30" as="geometry" />
        </mxCell>
        <mxCell id="ZZ9XeQo50VW3FPfhGWlt-76" value="&lt;font style=&quot;font-size: 18px;&quot;&gt;&lt;b&gt;Second Layer Region&lt;/b&gt;&lt;/font&gt;" style="rounded=1;whiteSpace=wrap;html=1;" vertex="1" parent="1">
          <mxGeometry x="50" y="187" width="200" height="180" as="geometry" />
        </mxCell>
        <mxCell id="ZZ9XeQo50VW3FPfhGWlt-250" style="edgeStyle=orthogonalEdgeStyle;rounded=0;orthogonalLoop=1;jettySize=auto;html=1;entryX=0.5;entryY=1;entryDx=0;entryDy=0;fillColor=#e51400;strokeColor=#B20000;strokeWidth=2;" edge="1" parent="1" source="ZZ9XeQo50VW3FPfhGWlt-77" target="ZZ9XeQo50VW3FPfhGWlt-29">
          <mxGeometry relative="1" as="geometry">
            <Array as="points">
              <mxPoint x="103" y="150" />
              <mxPoint x="103" y="150" />
            </Array>
          </mxGeometry>
        </mxCell>
        <mxCell id="ZZ9XeQo50VW3FPfhGWlt-262" value="probe" style="edgeLabel;html=1;align=center;verticalAlign=middle;resizable=0;points=[];" vertex="1" connectable="0" parent="ZZ9XeQo50VW3FPfhGWlt-250">
          <mxGeometry x="-0.3065" y="2" relative="1" as="geometry">
            <mxPoint as="offset" />
          </mxGeometry>
        </mxCell>
        <mxCell id="ZZ9XeQo50VW3FPfhGWlt-77" value="Prober" style="rounded=1;whiteSpace=wrap;html=1;" vertex="1" parent="1">
          <mxGeometry x="60" y="199" width="90" height="30" as="geometry" />
        </mxCell>
        <mxCell id="ZZ9XeQo50VW3FPfhGWlt-78" value="Load Balancer" style="rounded=1;whiteSpace=wrap;html=1;" vertex="1" parent="1">
          <mxGeometry x="60" y="337" width="180" height="20" as="geometry" />
        </mxCell>
        <mxCell id="ZZ9XeQo50VW3FPfhGWlt-79" value="Prober" style="rounded=1;whiteSpace=wrap;html=1;" vertex="1" parent="1">
          <mxGeometry x="150" y="199" width="90" height="30" as="geometry" />
        </mxCell>
        <mxCell id="ZZ9XeQo50VW3FPfhGWlt-80" value="Forwarded server" style="rounded=1;whiteSpace=wrap;html=1;" vertex="1" parent="1">
          <mxGeometry x="60" y="297" width="90" height="30" as="geometry" />
        </mxCell>
        <mxCell id="ZZ9XeQo50VW3FPfhGWlt-81" value="Forwarded server" style="rounded=1;whiteSpace=wrap;html=1;" vertex="1" parent="1">
          <mxGeometry x="150" y="297" width="90" height="30" as="geometry" />
        </mxCell>
        <mxCell id="ZZ9XeQo50VW3FPfhGWlt-254" style="edgeStyle=orthogonalEdgeStyle;rounded=0;orthogonalLoop=1;jettySize=auto;html=1;entryX=0.5;entryY=1;entryDx=0;entryDy=0;fillColor=#ffcd28;gradientColor=#ffa500;strokeColor=#d79b00;strokeWidth=4;" edge="1" parent="1" source="ZZ9XeQo50VW3FPfhGWlt-82" target="ZZ9XeQo50VW3FPfhGWlt-111">
          <mxGeometry relative="1" as="geometry" />
        </mxCell>
        <mxCell id="ZZ9XeQo50VW3FPfhGWlt-267" value="Performance&lt;div&gt;matrics&lt;/div&gt;" style="edgeLabel;html=1;align=center;verticalAlign=middle;resizable=0;points=[];" vertex="1" connectable="0" parent="ZZ9XeQo50VW3FPfhGWlt-254">
          <mxGeometry x="-0.2667" y="2" relative="1" as="geometry">
            <mxPoint y="-10" as="offset" />
          </mxGeometry>
        </mxCell>
        <mxCell id="ZZ9XeQo50VW3FPfhGWlt-82" value="Message&lt;div&gt;Queue&lt;/div&gt;" style="shape=cylinder3;whiteSpace=wrap;html=1;boundedLbl=1;backgroundOutline=1;size=15;" vertex="1" parent="1">
          <mxGeometry x="245" y="40" width="60" height="80" as="geometry" />
        </mxCell>
        <mxCell id="ZZ9XeQo50VW3FPfhGWlt-83" value="&lt;font style=&quot;font-size: 18px;&quot;&gt;&lt;b&gt;First Layer Region&lt;/b&gt;&lt;/font&gt;" style="rounded=1;whiteSpace=wrap;html=1;" vertex="1" parent="1">
          <mxGeometry x="-560" y="460" width="200" height="180" as="geometry" />
        </mxCell>
        <mxCell id="ZZ9XeQo50VW3FPfhGWlt-150" style="edgeStyle=orthogonalEdgeStyle;rounded=0;orthogonalLoop=1;jettySize=auto;html=1;entryX=0;entryY=0.5;entryDx=0;entryDy=0;strokeWidth=2;fillColor=#e51400;strokeColor=#B20000;" edge="1" parent="1" source="ZZ9XeQo50VW3FPfhGWlt-84" target="ZZ9XeQo50VW3FPfhGWlt-51">
          <mxGeometry relative="1" as="geometry">
            <Array as="points">
              <mxPoint x="-505" y="213" />
            </Array>
          </mxGeometry>
        </mxCell>
        <mxCell id="ZZ9XeQo50VW3FPfhGWlt-259" value="probe" style="edgeLabel;html=1;align=center;verticalAlign=middle;resizable=0;points=[];" vertex="1" connectable="0" parent="ZZ9XeQo50VW3FPfhGWlt-150">
          <mxGeometry x="0.6109" relative="1" as="geometry">
            <mxPoint as="offset" />
          </mxGeometry>
        </mxCell>
        <mxCell id="ZZ9XeQo50VW3FPfhGWlt-84" value="Prober" style="rounded=1;whiteSpace=wrap;html=1;" vertex="1" parent="1">
          <mxGeometry x="-550" y="472" width="90" height="30" as="geometry" />
        </mxCell>
        <mxCell id="ZZ9XeQo50VW3FPfhGWlt-85" value="Load Balancer" style="rounded=1;whiteSpace=wrap;html=1;" vertex="1" parent="1">
          <mxGeometry x="-550" y="610" width="180" height="20" as="geometry" />
        </mxCell>
        <mxCell id="ZZ9XeQo50VW3FPfhGWlt-158" style="edgeStyle=orthogonalEdgeStyle;rounded=0;orthogonalLoop=1;jettySize=auto;html=1;fillColor=#e51400;strokeColor=#B20000;strokeWidth=2;" edge="1" parent="1" source="ZZ9XeQo50VW3FPfhGWlt-86">
          <mxGeometry relative="1" as="geometry">
            <mxPoint x="-420" as="targetPoint" />
            <Array as="points">
              <mxPoint x="-400" y="420" />
              <mxPoint x="-420" y="420" />
            </Array>
          </mxGeometry>
        </mxCell>
        <mxCell id="ZZ9XeQo50VW3FPfhGWlt-258" value="probe" style="edgeLabel;html=1;align=center;verticalAlign=middle;resizable=0;points=[];" vertex="1" connectable="0" parent="ZZ9XeQo50VW3FPfhGWlt-158">
          <mxGeometry x="0.439" relative="1" as="geometry">
            <mxPoint as="offset" />
          </mxGeometry>
        </mxCell>
        <mxCell id="ZZ9XeQo50VW3FPfhGWlt-86" value="Prober" style="rounded=1;whiteSpace=wrap;html=1;" vertex="1" parent="1">
          <mxGeometry x="-460" y="472" width="90" height="30" as="geometry" />
        </mxCell>
        <mxCell id="ZZ9XeQo50VW3FPfhGWlt-87" value="Edge server" style="rounded=1;whiteSpace=wrap;html=1;" vertex="1" parent="1">
          <mxGeometry x="-550" y="570" width="90" height="30" as="geometry" />
        </mxCell>
        <mxCell id="ZZ9XeQo50VW3FPfhGWlt-88" value="Edge server" style="rounded=1;whiteSpace=wrap;html=1;" vertex="1" parent="1">
          <mxGeometry x="-460" y="570" width="90" height="30" as="geometry" />
        </mxCell>
        <mxCell id="ZZ9XeQo50VW3FPfhGWlt-89" value="&lt;font style=&quot;font-size: 18px;&quot;&gt;&lt;b&gt;First Layer Region&lt;/b&gt;&lt;/font&gt;" style="rounded=1;whiteSpace=wrap;html=1;" vertex="1" parent="1">
          <mxGeometry x="-260" y="460" width="200" height="180" as="geometry" />
        </mxCell>
        <mxCell id="ZZ9XeQo50VW3FPfhGWlt-90" value="Prober" style="rounded=1;whiteSpace=wrap;html=1;" vertex="1" parent="1">
          <mxGeometry x="-250" y="472" width="90" height="30" as="geometry" />
        </mxCell>
        <mxCell id="ZZ9XeQo50VW3FPfhGWlt-91" value="Load Balancer" style="rounded=1;whiteSpace=wrap;html=1;" vertex="1" parent="1">
          <mxGeometry x="-250" y="610" width="180" height="20" as="geometry" />
        </mxCell>
        <mxCell id="ZZ9XeQo50VW3FPfhGWlt-92" value="Prober" style="rounded=1;whiteSpace=wrap;html=1;" vertex="1" parent="1">
          <mxGeometry x="-160" y="472" width="90" height="30" as="geometry" />
        </mxCell>
        <mxCell id="ZZ9XeQo50VW3FPfhGWlt-93" value="Edge server" style="rounded=1;whiteSpace=wrap;html=1;" vertex="1" parent="1">
          <mxGeometry x="-250" y="570" width="90" height="30" as="geometry" />
        </mxCell>
        <mxCell id="ZZ9XeQo50VW3FPfhGWlt-94" value="Edge server" style="rounded=1;whiteSpace=wrap;html=1;" vertex="1" parent="1">
          <mxGeometry x="-160" y="570" width="90" height="30" as="geometry" />
        </mxCell>
        <mxCell id="ZZ9XeQo50VW3FPfhGWlt-95" value="&lt;font style=&quot;font-size: 18px;&quot;&gt;&lt;b&gt;First Layer Region&lt;/b&gt;&lt;/font&gt;" style="rounded=1;whiteSpace=wrap;html=1;" vertex="1" parent="1">
          <mxGeometry x="50" y="460" width="200" height="180" as="geometry" />
        </mxCell>
        <mxCell id="ZZ9XeQo50VW3FPfhGWlt-96" value="Prober" style="rounded=1;whiteSpace=wrap;html=1;" vertex="1" parent="1">
          <mxGeometry x="60" y="472" width="90" height="30" as="geometry" />
        </mxCell>
        <mxCell id="ZZ9XeQo50VW3FPfhGWlt-97" value="Load Balancer" style="rounded=1;whiteSpace=wrap;html=1;" vertex="1" parent="1">
          <mxGeometry x="60" y="610" width="180" height="20" as="geometry" />
        </mxCell>
        <mxCell id="ZZ9XeQo50VW3FPfhGWlt-98" value="Prober" style="rounded=1;whiteSpace=wrap;html=1;" vertex="1" parent="1">
          <mxGeometry x="150" y="472" width="90" height="30" as="geometry" />
        </mxCell>
        <mxCell id="ZZ9XeQo50VW3FPfhGWlt-99" value="Edge server" style="rounded=1;whiteSpace=wrap;html=1;" vertex="1" parent="1">
          <mxGeometry x="60" y="570" width="90" height="30" as="geometry" />
        </mxCell>
        <mxCell id="ZZ9XeQo50VW3FPfhGWlt-100" value="Edge server" style="rounded=1;whiteSpace=wrap;html=1;" vertex="1" parent="1">
          <mxGeometry x="150" y="570" width="90" height="30" as="geometry" />
        </mxCell>
        <mxCell id="ZZ9XeQo50VW3FPfhGWlt-101" value="&lt;font style=&quot;font-size: 18px;&quot;&gt;&lt;b&gt;First Layer Region&lt;/b&gt;&lt;/font&gt;" style="rounded=1;whiteSpace=wrap;html=1;" vertex="1" parent="1">
          <mxGeometry x="370" y="460" width="200" height="180" as="geometry" />
        </mxCell>
        <mxCell id="ZZ9XeQo50VW3FPfhGWlt-102" value="Prober" style="rounded=1;whiteSpace=wrap;html=1;" vertex="1" parent="1">
          <mxGeometry x="380" y="472" width="90" height="30" as="geometry" />
        </mxCell>
        <mxCell id="ZZ9XeQo50VW3FPfhGWlt-103" value="Load Balancer" style="rounded=1;whiteSpace=wrap;html=1;" vertex="1" parent="1">
          <mxGeometry x="380" y="610" width="180" height="20" as="geometry" />
        </mxCell>
        <mxCell id="ZZ9XeQo50VW3FPfhGWlt-104" value="Prober" style="rounded=1;whiteSpace=wrap;html=1;" vertex="1" parent="1">
          <mxGeometry x="470" y="472" width="90" height="30" as="geometry" />
        </mxCell>
        <mxCell id="ZZ9XeQo50VW3FPfhGWlt-105" value="Edge server" style="rounded=1;whiteSpace=wrap;html=1;" vertex="1" parent="1">
          <mxGeometry x="380" y="570" width="90" height="30" as="geometry" />
        </mxCell>
        <mxCell id="ZZ9XeQo50VW3FPfhGWlt-106" value="Edge server" style="rounded=1;whiteSpace=wrap;html=1;" vertex="1" parent="1">
          <mxGeometry x="470" y="570" width="90" height="30" as="geometry" />
        </mxCell>
        <mxCell id="ZZ9XeQo50VW3FPfhGWlt-107" value="Actor" style="shape=umlActor;verticalLabelPosition=bottom;verticalAlign=top;html=1;outlineConnect=0;" vertex="1" parent="1">
          <mxGeometry x="-474" y="750" width="30" height="60" as="geometry" />
        </mxCell>
        <mxCell id="ZZ9XeQo50VW3FPfhGWlt-108" value="&lt;span style=&quot;-webkit-font-smoothing: antialiased; box-sizing: border-box; -webkit-tap-highlight-color: rgba(0, 0, 0, 0); color: initial; line-height: var(--md-box-samantha-normal-text-line-height); overflow-anchor: auto; text-align: left; background-color: rgb(255, 255, 255);&quot;&gt;&lt;font face=&quot;Helvetica&quot; style=&quot;font-size: 12px;&quot;&gt;Model Layer&lt;/font&gt;&lt;/span&gt;" style="rounded=1;whiteSpace=wrap;html=1;" vertex="1" parent="1">
          <mxGeometry x="-55" y="-225" width="160" height="40" as="geometry" />
        </mxCell>
        <mxCell id="ZZ9XeQo50VW3FPfhGWlt-110" value="Trainer" style="rounded=1;whiteSpace=wrap;html=1;" vertex="1" parent="1">
          <mxGeometry x="230" y="-320" width="90" height="40" as="geometry" />
        </mxCell>
        <mxCell id="ZZ9XeQo50VW3FPfhGWlt-111" value="&lt;font style=&quot;font-size: 18px;&quot;&gt;&lt;b&gt;Compute Center&amp;nbsp;&lt;span style=&quot;background-color: transparent;&quot;&gt;CPU&lt;/span&gt;&lt;/b&gt;&lt;/font&gt;" style="rounded=1;whiteSpace=wrap;html=1;" vertex="1" parent="1">
          <mxGeometry x="180" y="-360" width="190" height="220" as="geometry" />
        </mxCell>
        <mxCell id="ZZ9XeQo50VW3FPfhGWlt-112" value="Route API" style="rounded=1;whiteSpace=wrap;html=1;" vertex="1" parent="1">
          <mxGeometry x="195" y="-185" width="160" height="20" as="geometry" />
        </mxCell>
        <mxCell id="ZZ9XeQo50VW3FPfhGWlt-113" value="&lt;div style=&quot;text-align: left;&quot;&gt;&lt;span style=&quot;background-color: rgb(255, 255, 255);&quot;&gt;Dynamic Router&lt;/span&gt;&lt;/div&gt;" style="rounded=1;whiteSpace=wrap;html=1;" vertex="1" parent="1">
          <mxGeometry x="195" y="-310" width="160" height="40" as="geometry" />
        </mxCell>
        <mxCell id="ZZ9XeQo50VW3FPfhGWlt-114" value="&lt;span style=&quot;-webkit-font-smoothing: antialiased; box-sizing: border-box; -webkit-tap-highlight-color: rgba(0, 0, 0, 0); color: initial; line-height: var(--md-box-samantha-normal-text-line-height); overflow-anchor: auto; text-align: left; background-color: rgb(255, 255, 255);&quot;&gt;&lt;font style=&quot;font-size: 12px;&quot; face=&quot;Helvetica&quot;&gt;Computing Power Implementation Layer&amp;nbsp;&lt;/font&gt;&lt;/span&gt;" style="rounded=1;whiteSpace=wrap;html=1;" vertex="1" parent="1">
          <mxGeometry x="195" y="-350" width="160" height="40" as="geometry" />
        </mxCell>
        <mxCell id="ZZ9XeQo50VW3FPfhGWlt-115" value="&lt;span style=&quot;-webkit-font-smoothing: antialiased; box-sizing: border-box; -webkit-tap-highlight-color: rgba(0, 0, 0, 0); color: initial; line-height: var(--md-box-samantha-normal-text-line-height); overflow-anchor: auto; text-align: left; background-color: rgb(255, 255, 255);&quot;&gt;&lt;font face=&quot;Helvetica&quot; style=&quot;font-size: 12px;&quot;&gt;Data Collector&lt;/font&gt;&lt;/span&gt;" style="rounded=1;whiteSpace=wrap;html=1;" vertex="1" parent="1">
          <mxGeometry x="195" y="-225" width="160" height="40" as="geometry" />
        </mxCell>
        <mxCell id="ZZ9XeQo50VW3FPfhGWlt-117" value="Trainer" style="rounded=1;whiteSpace=wrap;html=1;" vertex="1" parent="1">
          <mxGeometry x="-266" y="-320" width="90" height="40" as="geometry" />
        </mxCell>
        <mxCell id="ZZ9XeQo50VW3FPfhGWlt-118" value="&lt;font style=&quot;font-size: 18px;&quot;&gt;&lt;b&gt;Monitor Center&lt;/b&gt;&lt;/font&gt;" style="rounded=1;whiteSpace=wrap;html=1;" vertex="1" parent="1">
          <mxGeometry x="-316" y="-360" width="190" height="220" as="geometry" />
        </mxCell>
        <mxCell id="ZZ9XeQo50VW3FPfhGWlt-119" value="web API" style="rounded=1;whiteSpace=wrap;html=1;" vertex="1" parent="1">
          <mxGeometry x="-301" y="-185" width="160" height="20" as="geometry" />
        </mxCell>
        <mxCell id="ZZ9XeQo50VW3FPfhGWlt-120" value="AI Tranning Center" style="rounded=1;whiteSpace=wrap;html=1;" vertex="1" parent="1">
          <mxGeometry x="-301" y="-310" width="160" height="40" as="geometry" />
        </mxCell>
        <mxCell id="ZZ9XeQo50VW3FPfhGWlt-121" value="" style="rounded=1;whiteSpace=wrap;html=1;" vertex="1" parent="1">
          <mxGeometry x="-301" y="-350" width="160" height="40" as="geometry" />
        </mxCell>
        <mxCell id="ZZ9XeQo50VW3FPfhGWlt-122" value="&lt;span style=&quot;text-align: left; background-color: rgb(255, 255, 255);&quot;&gt;QOS profile&lt;/span&gt;" style="rounded=1;whiteSpace=wrap;html=1;" vertex="1" parent="1">
          <mxGeometry x="-301" y="-225" width="160" height="40" as="geometry" />
        </mxCell>
        <mxCell id="ZZ9XeQo50VW3FPfhGWlt-129" value="Route manager" style="rounded=1;whiteSpace=wrap;html=1;" vertex="1" parent="1">
          <mxGeometry x="-250" y="237" width="90" height="30" as="geometry" />
        </mxCell>
        <mxCell id="ZZ9XeQo50VW3FPfhGWlt-130" value="Route manager" style="rounded=1;whiteSpace=wrap;html=1;" vertex="1" parent="1">
          <mxGeometry x="-160" y="237" width="90" height="30" as="geometry" />
        </mxCell>
        <mxCell id="ZZ9XeQo50VW3FPfhGWlt-132" value="Route manager" style="rounded=1;whiteSpace=wrap;html=1;" vertex="1" parent="1">
          <mxGeometry x="60" y="237" width="90" height="30" as="geometry" />
        </mxCell>
        <mxCell id="ZZ9XeQo50VW3FPfhGWlt-133" value="Route manager" style="rounded=1;whiteSpace=wrap;html=1;" vertex="1" parent="1">
          <mxGeometry x="150" y="237" width="90" height="30" as="geometry" />
        </mxCell>
        <mxCell id="ZZ9XeQo50VW3FPfhGWlt-134" value="Route manager" style="rounded=1;whiteSpace=wrap;html=1;" vertex="1" parent="1">
          <mxGeometry x="-550" y="511" width="90" height="30" as="geometry" />
        </mxCell>
        <mxCell id="ZZ9XeQo50VW3FPfhGWlt-135" value="Route manager" style="rounded=1;whiteSpace=wrap;html=1;" vertex="1" parent="1">
          <mxGeometry x="-460" y="511" width="90" height="30" as="geometry" />
        </mxCell>
        <mxCell id="ZZ9XeQo50VW3FPfhGWlt-136" value="Route manager" style="rounded=1;whiteSpace=wrap;html=1;" vertex="1" parent="1">
          <mxGeometry x="-250" y="510" width="90" height="30" as="geometry" />
        </mxCell>
        <mxCell id="ZZ9XeQo50VW3FPfhGWlt-137" value="Route manager" style="rounded=1;whiteSpace=wrap;html=1;" vertex="1" parent="1">
          <mxGeometry x="-160" y="510" width="90" height="30" as="geometry" />
        </mxCell>
        <mxCell id="ZZ9XeQo50VW3FPfhGWlt-138" value="Route manager" style="rounded=1;whiteSpace=wrap;html=1;" vertex="1" parent="1">
          <mxGeometry x="60" y="510" width="90" height="30" as="geometry" />
        </mxCell>
        <mxCell id="ZZ9XeQo50VW3FPfhGWlt-139" value="Route manager" style="rounded=1;whiteSpace=wrap;html=1;" vertex="1" parent="1">
          <mxGeometry x="150" y="510" width="90" height="30" as="geometry" />
        </mxCell>
        <mxCell id="ZZ9XeQo50VW3FPfhGWlt-140" value="Route manager" style="rounded=1;whiteSpace=wrap;html=1;" vertex="1" parent="1">
          <mxGeometry x="380" y="510" width="90" height="30" as="geometry" />
        </mxCell>
        <mxCell id="ZZ9XeQo50VW3FPfhGWlt-141" value="Route manager" style="rounded=1;whiteSpace=wrap;html=1;" vertex="1" parent="1">
          <mxGeometry x="470" y="510" width="90" height="30" as="geometry" />
        </mxCell>
        <mxCell id="ZZ9XeQo50VW3FPfhGWlt-143" value="Actor" style="shape=umlActor;verticalLabelPosition=bottom;verticalAlign=top;html=1;outlineConnect=0;" vertex="1" parent="1">
          <mxGeometry x="-176" y="750" width="30" height="60" as="geometry" />
        </mxCell>
        <mxCell id="ZZ9XeQo50VW3FPfhGWlt-148" style="edgeStyle=orthogonalEdgeStyle;rounded=0;orthogonalLoop=1;jettySize=auto;html=1;entryX=0.02;entryY=0.15;entryDx=0;entryDy=0;entryPerimeter=0;strokeWidth=2;fillColor=#e51400;strokeColor=#B20000;" edge="1" parent="1" source="ZZ9XeQo50VW3FPfhGWlt-92" target="ZZ9XeQo50VW3FPfhGWlt-95">
          <mxGeometry relative="1" as="geometry" />
        </mxCell>
        <mxCell id="ZZ9XeQo50VW3FPfhGWlt-261" value="probe" style="edgeLabel;html=1;align=center;verticalAlign=middle;resizable=0;points=[];" vertex="1" connectable="0" parent="ZZ9XeQo50VW3FPfhGWlt-148">
          <mxGeometry x="-0.0484" y="1" relative="1" as="geometry">
            <mxPoint as="offset" />
          </mxGeometry>
        </mxCell>
        <mxCell id="ZZ9XeQo50VW3FPfhGWlt-149" style="edgeStyle=orthogonalEdgeStyle;rounded=0;orthogonalLoop=1;jettySize=auto;html=1;strokeWidth=2;fillColor=#e51400;strokeColor=#B20000;" edge="1" parent="1" source="ZZ9XeQo50VW3FPfhGWlt-98" target="ZZ9XeQo50VW3FPfhGWlt-102">
          <mxGeometry relative="1" as="geometry">
            <Array as="points">
              <mxPoint x="310" y="500" />
              <mxPoint x="310" y="500" />
            </Array>
          </mxGeometry>
        </mxCell>
        <mxCell id="ZZ9XeQo50VW3FPfhGWlt-264" value="probe" style="edgeLabel;html=1;align=center;verticalAlign=middle;resizable=0;points=[];" vertex="1" connectable="0" parent="ZZ9XeQo50VW3FPfhGWlt-149">
          <mxGeometry x="-0.1143" relative="1" as="geometry">
            <mxPoint as="offset" />
          </mxGeometry>
        </mxCell>
        <mxCell id="ZZ9XeQo50VW3FPfhGWlt-154" style="edgeStyle=orthogonalEdgeStyle;rounded=0;orthogonalLoop=1;jettySize=auto;html=1;entryX=0;entryY=0.5;entryDx=0;entryDy=0;fillColor=#e51400;strokeColor=#B20000;strokeWidth=2;" edge="1" parent="1" source="ZZ9XeQo50VW3FPfhGWlt-56" target="ZZ9XeQo50VW3FPfhGWlt-77">
          <mxGeometry relative="1" as="geometry" />
        </mxCell>
        <mxCell id="ZZ9XeQo50VW3FPfhGWlt-263" value="probe" style="edgeLabel;html=1;align=center;verticalAlign=middle;resizable=0;points=[];" vertex="1" connectable="0" parent="ZZ9XeQo50VW3FPfhGWlt-154">
          <mxGeometry x="-0.1145" y="-1" relative="1" as="geometry">
            <mxPoint as="offset" />
          </mxGeometry>
        </mxCell>
        <mxCell id="ZZ9XeQo50VW3FPfhGWlt-159" value="" style="endArrow=classic;startArrow=classic;html=1;rounded=0;entryX=0;entryY=0.5;entryDx=0;entryDy=0;" edge="1" parent="1" source="ZZ9XeQo50VW3FPfhGWlt-20" target="ZZ9XeQo50VW3FPfhGWlt-111">
          <mxGeometry width="50" height="50" relative="1" as="geometry">
            <mxPoint x="-60" y="-50" as="sourcePoint" />
            <mxPoint x="-10" y="-100" as="targetPoint" />
          </mxGeometry>
        </mxCell>
        <mxCell id="ZZ9XeQo50VW3FPfhGWlt-251" style="edgeStyle=orthogonalEdgeStyle;rounded=0;orthogonalLoop=1;jettySize=auto;html=1;entryX=0.5;entryY=1;entryDx=0;entryDy=0;entryPerimeter=0;fillColor=#ffcd28;gradientColor=#ffa500;strokeColor=#d79b00;strokeWidth=4;" edge="1" parent="1" source="ZZ9XeQo50VW3FPfhGWlt-102" target="ZZ9XeQo50VW3FPfhGWlt-12">
          <mxGeometry relative="1" as="geometry">
            <Array as="points">
              <mxPoint x="340" y="487" />
            </Array>
          </mxGeometry>
        </mxCell>
        <mxCell id="ZZ9XeQo50VW3FPfhGWlt-265" value="Performance&lt;div&gt;matrics&lt;/div&gt;" style="edgeLabel;html=1;align=center;verticalAlign=middle;resizable=0;points=[];" vertex="1" connectable="0" parent="ZZ9XeQo50VW3FPfhGWlt-251">
          <mxGeometry x="0.3661" relative="1" as="geometry">
            <mxPoint as="offset" />
          </mxGeometry>
        </mxCell>
        <mxCell id="ZZ9XeQo50VW3FPfhGWlt-252" style="edgeStyle=orthogonalEdgeStyle;rounded=0;orthogonalLoop=1;jettySize=auto;html=1;entryX=0.5;entryY=1;entryDx=0;entryDy=0;entryPerimeter=0;fillColor=#ffcd28;gradientColor=#ffa500;strokeColor=#d79b00;strokeWidth=4;" edge="1" parent="1" source="ZZ9XeQo50VW3FPfhGWlt-79" target="ZZ9XeQo50VW3FPfhGWlt-82">
          <mxGeometry relative="1" as="geometry" />
        </mxCell>
        <mxCell id="ZZ9XeQo50VW3FPfhGWlt-369" value="Performance&lt;div&gt;matrics&lt;/div&gt;" style="edgeLabel;html=1;align=center;verticalAlign=middle;resizable=0;points=[];" vertex="1" connectable="0" parent="ZZ9XeQo50VW3FPfhGWlt-252">
          <mxGeometry x="0.1938" y="-2" relative="1" as="geometry">
            <mxPoint as="offset" />
          </mxGeometry>
        </mxCell>
        <mxCell id="ZZ9XeQo50VW3FPfhGWlt-253" style="edgeStyle=orthogonalEdgeStyle;rounded=0;orthogonalLoop=1;jettySize=auto;html=1;entryX=0.842;entryY=1;entryDx=0;entryDy=0;entryPerimeter=0;fillColor=#ffcd28;gradientColor=#ffa500;strokeColor=#d79b00;strokeWidth=4;" edge="1" parent="1" source="ZZ9XeQo50VW3FPfhGWlt-12" target="ZZ9XeQo50VW3FPfhGWlt-111">
          <mxGeometry relative="1" as="geometry" />
        </mxCell>
        <mxCell id="ZZ9XeQo50VW3FPfhGWlt-266" value="Performance&lt;div&gt;matrics&lt;/div&gt;" style="edgeLabel;html=1;align=center;verticalAlign=middle;resizable=0;points=[];" vertex="1" connectable="0" parent="ZZ9XeQo50VW3FPfhGWlt-253">
          <mxGeometry x="-0.1556" y="-2" relative="1" as="geometry">
            <mxPoint as="offset" />
          </mxGeometry>
        </mxCell>
        <mxCell id="ZZ9XeQo50VW3FPfhGWlt-255" value="" style="endArrow=classic;startArrow=classic;html=1;rounded=0;entryX=0;entryY=0.5;entryDx=0;entryDy=0;exitX=1;exitY=0.5;exitDx=0;exitDy=0;" edge="1" parent="1" source="ZZ9XeQo50VW3FPfhGWlt-118" target="ZZ9XeQo50VW3FPfhGWlt-20">
          <mxGeometry width="50" height="50" relative="1" as="geometry">
            <mxPoint x="-120" y="-250" as="sourcePoint" />
            <mxPoint x="-70" y="-300" as="targetPoint" />
          </mxGeometry>
        </mxCell>
        <mxCell id="ZZ9XeQo50VW3FPfhGWlt-147" style="edgeStyle=orthogonalEdgeStyle;rounded=0;orthogonalLoop=1;jettySize=auto;html=1;entryX=0;entryY=0.5;entryDx=0;entryDy=0;strokeWidth=2;fillColor=#e51400;strokeColor=#B20000;" edge="1" parent="1" source="ZZ9XeQo50VW3FPfhGWlt-86" target="ZZ9XeQo50VW3FPfhGWlt-90">
          <mxGeometry relative="1" as="geometry" />
        </mxCell>
        <mxCell id="ZZ9XeQo50VW3FPfhGWlt-260" value="probe" style="edgeLabel;html=1;align=center;verticalAlign=middle;resizable=0;points=[];" vertex="1" connectable="0" parent="ZZ9XeQo50VW3FPfhGWlt-147">
          <mxGeometry x="-0.1" y="-1" relative="1" as="geometry">
            <mxPoint as="offset" />
          </mxGeometry>
        </mxCell>
        <mxCell id="ZZ9XeQo50VW3FPfhGWlt-270" value="Origin Server A" style="rounded=1;whiteSpace=wrap;html=1;" vertex="1" parent="1">
          <mxGeometry x="-480" y="1430" width="120" height="60" as="geometry" />
        </mxCell>
        <mxCell id="ZZ9XeQo50VW3FPfhGWlt-271" value="Message&lt;div&gt;Queue&lt;/div&gt;" style="shape=cylinder3;whiteSpace=wrap;html=1;boundedLbl=1;backgroundOutline=1;size=15;" vertex="1" parent="1">
          <mxGeometry x="310" y="1530" width="60" height="80" as="geometry" />
        </mxCell>
        <mxCell id="ZZ9XeQo50VW3FPfhGWlt-272" value="Trainer" style="rounded=1;whiteSpace=wrap;html=1;" vertex="1" parent="1">
          <mxGeometry x="-20" y="1170" width="90" height="40" as="geometry" />
        </mxCell>
        <mxCell id="ZZ9XeQo50VW3FPfhGWlt-407" style="edgeStyle=orthogonalEdgeStyle;rounded=0;orthogonalLoop=1;jettySize=auto;html=1;entryX=0.5;entryY=1;entryDx=0;entryDy=0;" edge="1" parent="1" source="ZZ9XeQo50VW3FPfhGWlt-273" target="ZZ9XeQo50VW3FPfhGWlt-399">
          <mxGeometry relative="1" as="geometry" />
        </mxCell>
        <mxCell id="ZZ9XeQo50VW3FPfhGWlt-273" value="&lt;b&gt;&lt;font style=&quot;font-size: 18px;&quot;&gt;AI Center&amp;nbsp;&lt;/font&gt;&lt;span style=&quot;font-size: medium; background-color: transparent;&quot;&gt;GPU&lt;/span&gt;&lt;/b&gt;" style="rounded=1;whiteSpace=wrap;html=1;" vertex="1" parent="1">
          <mxGeometry x="-70" y="1130" width="190" height="220" as="geometry" />
        </mxCell>
        <mxCell id="ZZ9XeQo50VW3FPfhGWlt-274" value="Route API" style="rounded=1;whiteSpace=wrap;html=1;" vertex="1" parent="1">
          <mxGeometry x="-55" y="1305" width="160" height="20" as="geometry" />
        </mxCell>
        <mxCell id="ZZ9XeQo50VW3FPfhGWlt-275" value="&lt;span style=&quot;-webkit-font-smoothing: antialiased; box-sizing: border-box; -webkit-tap-highlight-color: rgba(0, 0, 0, 0); color: initial; line-height: var(--md-box-samantha-normal-text-line-height); overflow-anchor: auto; text-align: left; background-color: rgb(255, 255, 255);&quot;&gt;&lt;font face=&quot;Helvetica&quot; style=&quot;font-size: 12px;&quot;&gt;Intelligent Computing Platform Layer&lt;/font&gt;&lt;/span&gt;" style="rounded=1;whiteSpace=wrap;html=1;" vertex="1" parent="1">
          <mxGeometry x="-55" y="1180" width="160" height="40" as="geometry" />
        </mxCell>
        <mxCell id="ZZ9XeQo50VW3FPfhGWlt-276" value="&lt;span style=&quot;-webkit-font-smoothing: antialiased; box-sizing: border-box; -webkit-tap-highlight-color: rgba(0, 0, 0, 0); color: initial; line-height: var(--md-box-samantha-normal-text-line-height); overflow-anchor: auto; text-align: left; background-color: rgb(255, 255, 255);&quot;&gt;&lt;font style=&quot;font-size: 12px;&quot; face=&quot;Helvetica&quot;&gt;Computing Power Implementation Layer&amp;nbsp;&lt;/font&gt;&lt;/span&gt;" style="rounded=1;whiteSpace=wrap;html=1;" vertex="1" parent="1">
          <mxGeometry x="-55" y="1140" width="160" height="40" as="geometry" />
        </mxCell>
        <mxCell id="ZZ9XeQo50VW3FPfhGWlt-277" value="Origin Server B" style="rounded=1;whiteSpace=wrap;html=1;" vertex="1" parent="1">
          <mxGeometry x="43" y="1430" width="120" height="60" as="geometry" />
        </mxCell>
        <mxCell id="ZZ9XeQo50VW3FPfhGWlt-278" value="Origin Server C" style="rounded=1;whiteSpace=wrap;html=1;" vertex="1" parent="1">
          <mxGeometry x="442" y="1430" width="120" height="60" as="geometry" />
        </mxCell>
        <mxCell id="ZZ9XeQo50VW3FPfhGWlt-279" value="&lt;font style=&quot;font-size: 18px;&quot;&gt;&lt;b&gt;Second Layer Region&lt;/b&gt;&lt;/font&gt;" style="rounded=1;whiteSpace=wrap;html=1;glass=0;shadow=0;" vertex="1" parent="1">
          <mxGeometry x="-260" y="1677" width="200" height="180" as="geometry" />
        </mxCell>
        <mxCell id="ZZ9XeQo50VW3FPfhGWlt-282" value="Prober" style="rounded=1;whiteSpace=wrap;html=1;" vertex="1" parent="1">
          <mxGeometry x="-250" y="1688" width="90" height="30" as="geometry" />
        </mxCell>
        <mxCell id="ZZ9XeQo50VW3FPfhGWlt-283" value="Load Balancer" style="rounded=1;whiteSpace=wrap;html=1;" vertex="1" parent="1">
          <mxGeometry x="-250" y="1827" width="180" height="20" as="geometry" />
        </mxCell>
        <mxCell id="ZZ9XeQo50VW3FPfhGWlt-285" value="Prober" style="rounded=1;whiteSpace=wrap;html=1;" vertex="1" parent="1">
          <mxGeometry x="-160" y="1688" width="90" height="30" as="geometry" />
        </mxCell>
        <mxCell id="ZZ9XeQo50VW3FPfhGWlt-286" value="Forwarded server" style="rounded=1;whiteSpace=wrap;html=1;" vertex="1" parent="1">
          <mxGeometry x="-250" y="1787" width="90" height="30" as="geometry" />
        </mxCell>
        <mxCell id="ZZ9XeQo50VW3FPfhGWlt-287" value="Forwarded server" style="rounded=1;whiteSpace=wrap;html=1;" vertex="1" parent="1">
          <mxGeometry x="-160" y="1787" width="90" height="30" as="geometry" />
        </mxCell>
        <mxCell id="ZZ9XeQo50VW3FPfhGWlt-375" style="edgeStyle=orthogonalEdgeStyle;rounded=0;orthogonalLoop=1;jettySize=auto;html=1;entryX=0.5;entryY=1;entryDx=0;entryDy=0;strokeWidth=2;fillColor=#f8cecc;gradientColor=#ea6b66;strokeColor=#b85450;" edge="1" parent="1" source="ZZ9XeQo50VW3FPfhGWlt-288" target="ZZ9XeQo50VW3FPfhGWlt-277">
          <mxGeometry relative="1" as="geometry" />
        </mxCell>
        <mxCell id="ZZ9XeQo50VW3FPfhGWlt-380" value="dynamic route" style="edgeLabel;html=1;align=center;verticalAlign=middle;resizable=0;points=[];" vertex="1" connectable="0" parent="ZZ9XeQo50VW3FPfhGWlt-375">
          <mxGeometry x="-0.6496" relative="1" as="geometry">
            <mxPoint as="offset" />
          </mxGeometry>
        </mxCell>
        <mxCell id="ZZ9XeQo50VW3FPfhGWlt-288" value="&lt;font style=&quot;font-size: 18px;&quot;&gt;&lt;b&gt;Second Layer Region&lt;/b&gt;&lt;/font&gt;" style="rounded=1;whiteSpace=wrap;html=1;" vertex="1" parent="1">
          <mxGeometry x="50" y="1677" width="200" height="180" as="geometry" />
        </mxCell>
        <mxCell id="ZZ9XeQo50VW3FPfhGWlt-291" value="Prober" style="rounded=1;whiteSpace=wrap;html=1;" vertex="1" parent="1">
          <mxGeometry x="60" y="1689" width="90" height="30" as="geometry" />
        </mxCell>
        <mxCell id="ZZ9XeQo50VW3FPfhGWlt-292" value="Load Balancer" style="rounded=1;whiteSpace=wrap;html=1;" vertex="1" parent="1">
          <mxGeometry x="60" y="1827" width="180" height="20" as="geometry" />
        </mxCell>
        <mxCell id="ZZ9XeQo50VW3FPfhGWlt-293" value="Prober" style="rounded=1;whiteSpace=wrap;html=1;" vertex="1" parent="1">
          <mxGeometry x="150" y="1689" width="90" height="30" as="geometry" />
        </mxCell>
        <mxCell id="ZZ9XeQo50VW3FPfhGWlt-294" value="Forwarded server" style="rounded=1;whiteSpace=wrap;html=1;" vertex="1" parent="1">
          <mxGeometry x="60" y="1787" width="90" height="30" as="geometry" />
        </mxCell>
        <mxCell id="ZZ9XeQo50VW3FPfhGWlt-295" value="Forwarded server" style="rounded=1;whiteSpace=wrap;html=1;" vertex="1" parent="1">
          <mxGeometry x="150" y="1787" width="90" height="30" as="geometry" />
        </mxCell>
        <mxCell id="ZZ9XeQo50VW3FPfhGWlt-298" value="Message&lt;div&gt;Queue&lt;/div&gt;" style="shape=cylinder3;whiteSpace=wrap;html=1;boundedLbl=1;backgroundOutline=1;size=15;" vertex="1" parent="1">
          <mxGeometry x="245" y="1530" width="60" height="80" as="geometry" />
        </mxCell>
        <mxCell id="ZZ9XeQo50VW3FPfhGWlt-374" style="edgeStyle=orthogonalEdgeStyle;rounded=0;orthogonalLoop=1;jettySize=auto;html=1;entryX=0.25;entryY=1;entryDx=0;entryDy=0;strokeWidth=2;fillColor=#f8cecc;gradientColor=#ea6b66;strokeColor=#b85450;" edge="1" parent="1" source="ZZ9XeQo50VW3FPfhGWlt-299" target="ZZ9XeQo50VW3FPfhGWlt-288">
          <mxGeometry relative="1" as="geometry">
            <Array as="points">
              <mxPoint x="-460" y="1880" />
              <mxPoint x="100" y="1880" />
            </Array>
          </mxGeometry>
        </mxCell>
        <mxCell id="ZZ9XeQo50VW3FPfhGWlt-378" value="dynamic route" style="edgeLabel;html=1;align=center;verticalAlign=middle;resizable=0;points=[];" vertex="1" connectable="0" parent="ZZ9XeQo50VW3FPfhGWlt-374">
          <mxGeometry x="-0.2435" y="4" relative="1" as="geometry">
            <mxPoint as="offset" />
          </mxGeometry>
        </mxCell>
        <mxCell id="ZZ9XeQo50VW3FPfhGWlt-299" value="&lt;font style=&quot;font-size: 18px;&quot;&gt;&lt;b&gt;First Layer Region&lt;/b&gt;&lt;/font&gt;" style="rounded=1;whiteSpace=wrap;html=1;" vertex="1" parent="1">
          <mxGeometry x="-560" y="1950" width="200" height="180" as="geometry" />
        </mxCell>
        <mxCell id="ZZ9XeQo50VW3FPfhGWlt-302" value="Prober" style="rounded=1;whiteSpace=wrap;html=1;" vertex="1" parent="1">
          <mxGeometry x="-550" y="1962" width="90" height="30" as="geometry" />
        </mxCell>
        <mxCell id="ZZ9XeQo50VW3FPfhGWlt-303" value="Load Balancer" style="rounded=1;whiteSpace=wrap;html=1;" vertex="1" parent="1">
          <mxGeometry x="-550" y="2100" width="180" height="20" as="geometry" />
        </mxCell>
        <mxCell id="ZZ9XeQo50VW3FPfhGWlt-306" value="Prober" style="rounded=1;whiteSpace=wrap;html=1;" vertex="1" parent="1">
          <mxGeometry x="-460" y="1962" width="90" height="30" as="geometry" />
        </mxCell>
        <mxCell id="ZZ9XeQo50VW3FPfhGWlt-307" value="Edge server" style="rounded=1;whiteSpace=wrap;html=1;" vertex="1" parent="1">
          <mxGeometry x="-550" y="2060" width="90" height="30" as="geometry" />
        </mxCell>
        <mxCell id="ZZ9XeQo50VW3FPfhGWlt-308" value="Edge server" style="rounded=1;whiteSpace=wrap;html=1;" vertex="1" parent="1">
          <mxGeometry x="-460" y="2060" width="90" height="30" as="geometry" />
        </mxCell>
        <mxCell id="ZZ9XeQo50VW3FPfhGWlt-373" style="edgeStyle=orthogonalEdgeStyle;rounded=0;orthogonalLoop=1;jettySize=auto;html=1;entryX=0.5;entryY=1;entryDx=0;entryDy=0;strokeWidth=2;fillColor=#f8cecc;gradientColor=#ea6b66;strokeColor=#b85450;" edge="1" parent="1" source="ZZ9XeQo50VW3FPfhGWlt-309" target="ZZ9XeQo50VW3FPfhGWlt-288">
          <mxGeometry relative="1" as="geometry">
            <Array as="points">
              <mxPoint x="-160" y="1900" />
              <mxPoint x="150" y="1900" />
            </Array>
          </mxGeometry>
        </mxCell>
        <mxCell id="ZZ9XeQo50VW3FPfhGWlt-379" value="dynamic route" style="edgeLabel;html=1;align=center;verticalAlign=middle;resizable=0;points=[];" vertex="1" connectable="0" parent="ZZ9XeQo50VW3FPfhGWlt-373">
          <mxGeometry x="-0.072" y="1" relative="1" as="geometry">
            <mxPoint as="offset" />
          </mxGeometry>
        </mxCell>
        <mxCell id="ZZ9XeQo50VW3FPfhGWlt-309" value="&lt;font style=&quot;font-size: 18px;&quot;&gt;&lt;b&gt;First Layer Region&lt;/b&gt;&lt;/font&gt;" style="rounded=1;whiteSpace=wrap;html=1;" vertex="1" parent="1">
          <mxGeometry x="-260" y="1950" width="200" height="180" as="geometry" />
        </mxCell>
        <mxCell id="ZZ9XeQo50VW3FPfhGWlt-310" value="Prober" style="rounded=1;whiteSpace=wrap;html=1;" vertex="1" parent="1">
          <mxGeometry x="-250" y="1962" width="90" height="30" as="geometry" />
        </mxCell>
        <mxCell id="ZZ9XeQo50VW3FPfhGWlt-311" value="Load Balancer" style="rounded=1;whiteSpace=wrap;html=1;" vertex="1" parent="1">
          <mxGeometry x="-250" y="2100" width="180" height="20" as="geometry" />
        </mxCell>
        <mxCell id="ZZ9XeQo50VW3FPfhGWlt-312" value="Prober" style="rounded=1;whiteSpace=wrap;html=1;" vertex="1" parent="1">
          <mxGeometry x="-160" y="1962" width="90" height="30" as="geometry" />
        </mxCell>
        <mxCell id="ZZ9XeQo50VW3FPfhGWlt-313" value="Edge server" style="rounded=1;whiteSpace=wrap;html=1;" vertex="1" parent="1">
          <mxGeometry x="-250" y="2060" width="90" height="30" as="geometry" />
        </mxCell>
        <mxCell id="ZZ9XeQo50VW3FPfhGWlt-314" value="Edge server" style="rounded=1;whiteSpace=wrap;html=1;" vertex="1" parent="1">
          <mxGeometry x="-160" y="2060" width="90" height="30" as="geometry" />
        </mxCell>
        <mxCell id="ZZ9XeQo50VW3FPfhGWlt-315" value="&lt;font style=&quot;font-size: 18px;&quot;&gt;&lt;b&gt;First Layer Region&lt;/b&gt;&lt;/font&gt;" style="rounded=1;whiteSpace=wrap;html=1;" vertex="1" parent="1">
          <mxGeometry x="50" y="1950" width="200" height="180" as="geometry" />
        </mxCell>
        <mxCell id="ZZ9XeQo50VW3FPfhGWlt-316" value="Prober" style="rounded=1;whiteSpace=wrap;html=1;" vertex="1" parent="1">
          <mxGeometry x="60" y="1962" width="90" height="30" as="geometry" />
        </mxCell>
        <mxCell id="ZZ9XeQo50VW3FPfhGWlt-317" value="Load Balancer" style="rounded=1;whiteSpace=wrap;html=1;" vertex="1" parent="1">
          <mxGeometry x="60" y="2100" width="180" height="20" as="geometry" />
        </mxCell>
        <mxCell id="ZZ9XeQo50VW3FPfhGWlt-318" value="Prober" style="rounded=1;whiteSpace=wrap;html=1;" vertex="1" parent="1">
          <mxGeometry x="150" y="1962" width="90" height="30" as="geometry" />
        </mxCell>
        <mxCell id="ZZ9XeQo50VW3FPfhGWlt-319" value="Edge server" style="rounded=1;whiteSpace=wrap;html=1;" vertex="1" parent="1">
          <mxGeometry x="60" y="2060" width="90" height="30" as="geometry" />
        </mxCell>
        <mxCell id="ZZ9XeQo50VW3FPfhGWlt-320" value="Edge server" style="rounded=1;whiteSpace=wrap;html=1;" vertex="1" parent="1">
          <mxGeometry x="150" y="2060" width="90" height="30" as="geometry" />
        </mxCell>
        <mxCell id="ZZ9XeQo50VW3FPfhGWlt-321" value="&lt;font style=&quot;font-size: 18px;&quot;&gt;&lt;b&gt;First Layer Region&lt;/b&gt;&lt;/font&gt;" style="rounded=1;whiteSpace=wrap;html=1;" vertex="1" parent="1">
          <mxGeometry x="370" y="1950" width="200" height="180" as="geometry" />
        </mxCell>
        <mxCell id="ZZ9XeQo50VW3FPfhGWlt-322" value="Prober" style="rounded=1;whiteSpace=wrap;html=1;" vertex="1" parent="1">
          <mxGeometry x="380" y="1962" width="90" height="30" as="geometry" />
        </mxCell>
        <mxCell id="ZZ9XeQo50VW3FPfhGWlt-323" value="Load Balancer" style="rounded=1;whiteSpace=wrap;html=1;" vertex="1" parent="1">
          <mxGeometry x="380" y="2100" width="180" height="20" as="geometry" />
        </mxCell>
        <mxCell id="ZZ9XeQo50VW3FPfhGWlt-324" value="Prober" style="rounded=1;whiteSpace=wrap;html=1;" vertex="1" parent="1">
          <mxGeometry x="470" y="1962" width="90" height="30" as="geometry" />
        </mxCell>
        <mxCell id="ZZ9XeQo50VW3FPfhGWlt-325" value="Edge server" style="rounded=1;whiteSpace=wrap;html=1;" vertex="1" parent="1">
          <mxGeometry x="380" y="2060" width="90" height="30" as="geometry" />
        </mxCell>
        <mxCell id="ZZ9XeQo50VW3FPfhGWlt-326" value="Edge server" style="rounded=1;whiteSpace=wrap;html=1;" vertex="1" parent="1">
          <mxGeometry x="470" y="2060" width="90" height="30" as="geometry" />
        </mxCell>
        <mxCell id="ZZ9XeQo50VW3FPfhGWlt-327" value="Actor" style="shape=umlActor;verticalLabelPosition=bottom;verticalAlign=top;html=1;outlineConnect=0;" vertex="1" parent="1">
          <mxGeometry x="-481" y="2240" width="30" height="60" as="geometry" />
        </mxCell>
        <mxCell id="ZZ9XeQo50VW3FPfhGWlt-328" value="&lt;span style=&quot;-webkit-font-smoothing: antialiased; box-sizing: border-box; -webkit-tap-highlight-color: rgba(0, 0, 0, 0); color: initial; line-height: var(--md-box-samantha-normal-text-line-height); overflow-anchor: auto; text-align: left; background-color: rgb(255, 255, 255);&quot;&gt;&lt;font face=&quot;Helvetica&quot; style=&quot;font-size: 12px;&quot;&gt;Model Layer&lt;/font&gt;&lt;/span&gt;" style="rounded=1;whiteSpace=wrap;html=1;" vertex="1" parent="1">
          <mxGeometry x="-55" y="1265" width="160" height="40" as="geometry" />
        </mxCell>
        <mxCell id="ZZ9XeQo50VW3FPfhGWlt-329" value="Trainer" style="rounded=1;whiteSpace=wrap;html=1;" vertex="1" parent="1">
          <mxGeometry x="230" y="1170" width="90" height="40" as="geometry" />
        </mxCell>
        <mxCell id="ZZ9XeQo50VW3FPfhGWlt-330" value="&lt;font style=&quot;font-size: 18px;&quot;&gt;&lt;b&gt;Compute C&lt;/b&gt;&lt;/font&gt;&lt;b style=&quot;font-size: 18px; background-color: transparent;&quot;&gt;enter&amp;nbsp;&lt;span style=&quot;background-color: transparent;&quot;&gt;CPU&lt;/span&gt;&lt;/b&gt;" style="rounded=1;whiteSpace=wrap;html=1;" vertex="1" parent="1">
          <mxGeometry x="180" y="1130" width="190" height="220" as="geometry" />
        </mxCell>
        <mxCell id="ZZ9XeQo50VW3FPfhGWlt-331" value="Route API" style="rounded=1;whiteSpace=wrap;html=1;" vertex="1" parent="1">
          <mxGeometry x="195" y="1305" width="160" height="20" as="geometry" />
        </mxCell>
        <mxCell id="ZZ9XeQo50VW3FPfhGWlt-332" value="&lt;div style=&quot;text-align: left;&quot;&gt;&lt;span style=&quot;background-color: rgb(255, 255, 255);&quot;&gt;Dynamic Router&lt;/span&gt;&lt;/div&gt;" style="rounded=1;whiteSpace=wrap;html=1;" vertex="1" parent="1">
          <mxGeometry x="195" y="1180" width="160" height="40" as="geometry" />
        </mxCell>
        <mxCell id="ZZ9XeQo50VW3FPfhGWlt-333" value="&lt;span style=&quot;-webkit-font-smoothing: antialiased; box-sizing: border-box; -webkit-tap-highlight-color: rgba(0, 0, 0, 0); color: initial; line-height: var(--md-box-samantha-normal-text-line-height); overflow-anchor: auto; text-align: left; background-color: rgb(255, 255, 255);&quot;&gt;&lt;font style=&quot;font-size: 12px;&quot; face=&quot;Helvetica&quot;&gt;Computing Power Implementation Layer&amp;nbsp;&lt;/font&gt;&lt;/span&gt;" style="rounded=1;whiteSpace=wrap;html=1;" vertex="1" parent="1">
          <mxGeometry x="195" y="1140" width="160" height="40" as="geometry" />
        </mxCell>
        <mxCell id="ZZ9XeQo50VW3FPfhGWlt-334" value="&lt;span style=&quot;-webkit-font-smoothing: antialiased; box-sizing: border-box; -webkit-tap-highlight-color: rgba(0, 0, 0, 0); color: initial; line-height: var(--md-box-samantha-normal-text-line-height); overflow-anchor: auto; text-align: left; background-color: rgb(255, 255, 255);&quot;&gt;&lt;font face=&quot;Helvetica&quot; style=&quot;font-size: 12px;&quot;&gt;Data Collector&lt;/font&gt;&lt;/span&gt;" style="rounded=1;whiteSpace=wrap;html=1;" vertex="1" parent="1">
          <mxGeometry x="195" y="1265" width="160" height="40" as="geometry" />
        </mxCell>
        <mxCell id="ZZ9XeQo50VW3FPfhGWlt-335" value="Trainer" style="rounded=1;whiteSpace=wrap;html=1;" vertex="1" parent="1">
          <mxGeometry x="-266" y="1170" width="90" height="40" as="geometry" />
        </mxCell>
        <mxCell id="ZZ9XeQo50VW3FPfhGWlt-336" value="&lt;font style=&quot;font-size: 18px;&quot;&gt;&lt;b&gt;Monitor Center&lt;/b&gt;&lt;/font&gt;" style="rounded=1;whiteSpace=wrap;html=1;" vertex="1" parent="1">
          <mxGeometry x="-316" y="1130" width="190" height="220" as="geometry" />
        </mxCell>
        <mxCell id="ZZ9XeQo50VW3FPfhGWlt-337" value="web API" style="rounded=1;whiteSpace=wrap;html=1;" vertex="1" parent="1">
          <mxGeometry x="-301" y="1305" width="160" height="20" as="geometry" />
        </mxCell>
        <mxCell id="ZZ9XeQo50VW3FPfhGWlt-338" value="Tranning Center" style="rounded=1;whiteSpace=wrap;html=1;" vertex="1" parent="1">
          <mxGeometry x="-301" y="1180" width="160" height="40" as="geometry" />
        </mxCell>
        <mxCell id="ZZ9XeQo50VW3FPfhGWlt-339" value="" style="rounded=1;whiteSpace=wrap;html=1;" vertex="1" parent="1">
          <mxGeometry x="-301" y="1140" width="160" height="40" as="geometry" />
        </mxCell>
        <mxCell id="ZZ9XeQo50VW3FPfhGWlt-340" value="&lt;span style=&quot;text-align: left; background-color: rgb(255, 255, 255);&quot;&gt;QOS profile&lt;/span&gt;" style="rounded=1;whiteSpace=wrap;html=1;" vertex="1" parent="1">
          <mxGeometry x="-301" y="1265" width="160" height="40" as="geometry" />
        </mxCell>
        <mxCell id="ZZ9XeQo50VW3FPfhGWlt-382" style="edgeStyle=orthogonalEdgeStyle;rounded=0;orthogonalLoop=1;jettySize=auto;html=1;entryX=0.25;entryY=1;entryDx=0;entryDy=0;strokeWidth=2;fillColor=#ffcd28;gradientColor=#ffa500;strokeColor=#d79b00;" edge="1" parent="1" source="ZZ9XeQo50VW3FPfhGWlt-341" target="ZZ9XeQo50VW3FPfhGWlt-274">
          <mxGeometry relative="1" as="geometry">
            <Array as="points">
              <mxPoint x="-300" y="1742" />
              <mxPoint x="-300" y="1640" />
              <mxPoint x="-15" y="1640" />
            </Array>
          </mxGeometry>
        </mxCell>
        <mxCell id="ZZ9XeQo50VW3FPfhGWlt-384" value="dynamic route query" style="edgeLabel;html=1;align=center;verticalAlign=middle;resizable=0;points=[];" vertex="1" connectable="0" parent="ZZ9XeQo50VW3FPfhGWlt-382">
          <mxGeometry x="-0.1144" y="1" relative="1" as="geometry">
            <mxPoint as="offset" />
          </mxGeometry>
        </mxCell>
        <mxCell id="ZZ9XeQo50VW3FPfhGWlt-341" value="Route manager" style="rounded=1;whiteSpace=wrap;html=1;" vertex="1" parent="1">
          <mxGeometry x="-250" y="1727" width="90" height="30" as="geometry" />
        </mxCell>
        <mxCell id="ZZ9XeQo50VW3FPfhGWlt-342" value="Route manager" style="rounded=1;whiteSpace=wrap;html=1;" vertex="1" parent="1">
          <mxGeometry x="-160" y="1727" width="90" height="30" as="geometry" />
        </mxCell>
        <mxCell id="ZZ9XeQo50VW3FPfhGWlt-343" value="Route manager" style="rounded=1;whiteSpace=wrap;html=1;" vertex="1" parent="1">
          <mxGeometry x="60" y="1727" width="90" height="30" as="geometry" />
        </mxCell>
        <mxCell id="ZZ9XeQo50VW3FPfhGWlt-344" value="Route manager" style="rounded=1;whiteSpace=wrap;html=1;" vertex="1" parent="1">
          <mxGeometry x="150" y="1727" width="90" height="30" as="geometry" />
        </mxCell>
        <mxCell id="ZZ9XeQo50VW3FPfhGWlt-381" style="edgeStyle=orthogonalEdgeStyle;rounded=0;orthogonalLoop=1;jettySize=auto;html=1;entryX=0.5;entryY=1;entryDx=0;entryDy=0;strokeWidth=2;fillColor=#ffcd28;gradientColor=#ffa500;strokeColor=#d79b00;" edge="1" parent="1" source="ZZ9XeQo50VW3FPfhGWlt-345" target="ZZ9XeQo50VW3FPfhGWlt-274">
          <mxGeometry relative="1" as="geometry">
            <Array as="points">
              <mxPoint x="-590" y="2016" />
              <mxPoint x="-590" y="1560" />
              <mxPoint x="25" y="1560" />
            </Array>
          </mxGeometry>
        </mxCell>
        <mxCell id="ZZ9XeQo50VW3FPfhGWlt-383" value="dynamic route query" style="edgeLabel;html=1;align=center;verticalAlign=middle;resizable=0;points=[];" vertex="1" connectable="0" parent="ZZ9XeQo50VW3FPfhGWlt-381">
          <mxGeometry x="0.3507" y="1" relative="1" as="geometry">
            <mxPoint as="offset" />
          </mxGeometry>
        </mxCell>
        <mxCell id="ZZ9XeQo50VW3FPfhGWlt-345" value="Route manager" style="rounded=1;whiteSpace=wrap;html=1;" vertex="1" parent="1">
          <mxGeometry x="-550" y="2001" width="90" height="30" as="geometry" />
        </mxCell>
        <mxCell id="ZZ9XeQo50VW3FPfhGWlt-346" value="Route manager" style="rounded=1;whiteSpace=wrap;html=1;" vertex="1" parent="1">
          <mxGeometry x="-460" y="2001" width="90" height="30" as="geometry" />
        </mxCell>
        <mxCell id="ZZ9XeQo50VW3FPfhGWlt-347" value="Route manager" style="rounded=1;whiteSpace=wrap;html=1;" vertex="1" parent="1">
          <mxGeometry x="-250" y="2000" width="90" height="30" as="geometry" />
        </mxCell>
        <mxCell id="ZZ9XeQo50VW3FPfhGWlt-348" value="Route manager" style="rounded=1;whiteSpace=wrap;html=1;" vertex="1" parent="1">
          <mxGeometry x="-160" y="2000" width="90" height="30" as="geometry" />
        </mxCell>
        <mxCell id="ZZ9XeQo50VW3FPfhGWlt-349" value="Route manager" style="rounded=1;whiteSpace=wrap;html=1;" vertex="1" parent="1">
          <mxGeometry x="60" y="2000" width="90" height="30" as="geometry" />
        </mxCell>
        <mxCell id="ZZ9XeQo50VW3FPfhGWlt-350" value="Route manager" style="rounded=1;whiteSpace=wrap;html=1;" vertex="1" parent="1">
          <mxGeometry x="150" y="2000" width="90" height="30" as="geometry" />
        </mxCell>
        <mxCell id="ZZ9XeQo50VW3FPfhGWlt-351" value="Route manager" style="rounded=1;whiteSpace=wrap;html=1;" vertex="1" parent="1">
          <mxGeometry x="380" y="2000" width="90" height="30" as="geometry" />
        </mxCell>
        <mxCell id="ZZ9XeQo50VW3FPfhGWlt-352" value="Route manager" style="rounded=1;whiteSpace=wrap;html=1;" vertex="1" parent="1">
          <mxGeometry x="470" y="2000" width="90" height="30" as="geometry" />
        </mxCell>
        <mxCell id="ZZ9XeQo50VW3FPfhGWlt-372" style="edgeStyle=orthogonalEdgeStyle;rounded=0;orthogonalLoop=1;jettySize=auto;html=1;entryX=0.5;entryY=1;entryDx=0;entryDy=0;strokeWidth=2;fillColor=#f8cecc;gradientColor=#ea6b66;strokeColor=#b85450;" edge="1" parent="1" source="ZZ9XeQo50VW3FPfhGWlt-353" target="ZZ9XeQo50VW3FPfhGWlt-309">
          <mxGeometry relative="1" as="geometry" />
        </mxCell>
        <mxCell id="ZZ9XeQo50VW3FPfhGWlt-377" value="dynamic route" style="edgeLabel;html=1;align=center;verticalAlign=middle;resizable=0;points=[];" vertex="1" connectable="0" parent="ZZ9XeQo50VW3FPfhGWlt-372">
          <mxGeometry x="-0.0909" y="-3" relative="1" as="geometry">
            <mxPoint as="offset" />
          </mxGeometry>
        </mxCell>
        <mxCell id="ZZ9XeQo50VW3FPfhGWlt-353" value="Actor" style="shape=umlActor;verticalLabelPosition=bottom;verticalAlign=top;html=1;outlineConnect=0;" vertex="1" parent="1">
          <mxGeometry x="-175" y="2240" width="30" height="60" as="geometry" />
        </mxCell>
        <mxCell id="ZZ9XeQo50VW3FPfhGWlt-360" value="" style="endArrow=classic;startArrow=classic;html=1;rounded=0;entryX=0;entryY=0.5;entryDx=0;entryDy=0;" edge="1" parent="1" source="ZZ9XeQo50VW3FPfhGWlt-273" target="ZZ9XeQo50VW3FPfhGWlt-330">
          <mxGeometry width="50" height="50" relative="1" as="geometry">
            <mxPoint x="-60" y="1440" as="sourcePoint" />
            <mxPoint x="-10" y="1390" as="targetPoint" />
          </mxGeometry>
        </mxCell>
        <mxCell id="ZZ9XeQo50VW3FPfhGWlt-366" value="" style="endArrow=classic;startArrow=classic;html=1;rounded=0;entryX=0;entryY=0.5;entryDx=0;entryDy=0;exitX=1;exitY=0.5;exitDx=0;exitDy=0;" edge="1" parent="1" source="ZZ9XeQo50VW3FPfhGWlt-336" target="ZZ9XeQo50VW3FPfhGWlt-273">
          <mxGeometry width="50" height="50" relative="1" as="geometry">
            <mxPoint x="-120" y="1240" as="sourcePoint" />
            <mxPoint x="-70" y="1190" as="targetPoint" />
          </mxGeometry>
        </mxCell>
        <mxCell id="ZZ9XeQo50VW3FPfhGWlt-371" style="edgeStyle=orthogonalEdgeStyle;rounded=0;orthogonalLoop=1;jettySize=auto;html=1;entryX=0.47;entryY=1;entryDx=0;entryDy=0;entryPerimeter=0;strokeWidth=2;fillColor=#f8cecc;gradientColor=#ea6b66;strokeColor=#b85450;" edge="1" parent="1" source="ZZ9XeQo50VW3FPfhGWlt-327" target="ZZ9XeQo50VW3FPfhGWlt-299">
          <mxGeometry relative="1" as="geometry" />
        </mxCell>
        <mxCell id="ZZ9XeQo50VW3FPfhGWlt-376" value="dynamic route" style="edgeLabel;html=1;align=center;verticalAlign=middle;resizable=0;points=[];" vertex="1" connectable="0" parent="ZZ9XeQo50VW3FPfhGWlt-371">
          <mxGeometry x="-0.1273" y="-2" relative="1" as="geometry">
            <mxPoint as="offset" />
          </mxGeometry>
        </mxCell>
        <mxCell id="ZZ9XeQo50VW3FPfhGWlt-395" value="" style="rounded=1;whiteSpace=wrap;html=1;" vertex="1" parent="1">
          <mxGeometry x="-320" y="-500" width="690" height="110" as="geometry" />
        </mxCell>
        <mxCell id="ZZ9XeQo50VW3FPfhGWlt-386" value="mysql" style="shape=cylinder3;whiteSpace=wrap;html=1;boundedLbl=1;backgroundOutline=1;size=15;" vertex="1" parent="1">
          <mxGeometry x="-201" y="-489" width="60" height="80" as="geometry" />
        </mxCell>
        <mxCell id="ZZ9XeQo50VW3FPfhGWlt-387" value="mysql" style="shape=cylinder3;whiteSpace=wrap;html=1;boundedLbl=1;backgroundOutline=1;size=15;" vertex="1" parent="1">
          <mxGeometry x="-126" y="-489" width="60" height="80" as="geometry" />
        </mxCell>
        <mxCell id="ZZ9XeQo50VW3FPfhGWlt-388" value="HDFS" style="shape=cylinder3;whiteSpace=wrap;html=1;boundedLbl=1;backgroundOutline=1;size=15;" vertex="1" parent="1">
          <mxGeometry x="90" y="-489" width="60" height="80" as="geometry" />
        </mxCell>
        <mxCell id="ZZ9XeQo50VW3FPfhGWlt-389" value="HDFS" style="shape=cylinder3;whiteSpace=wrap;html=1;boundedLbl=1;backgroundOutline=1;size=15;" vertex="1" parent="1">
          <mxGeometry x="165" y="-489" width="60" height="80" as="geometry" />
        </mxCell>
        <mxCell id="ZZ9XeQo50VW3FPfhGWlt-390" value="redis&lt;div&gt;KV storage&lt;/div&gt;" style="shape=cylinder3;whiteSpace=wrap;html=1;boundedLbl=1;backgroundOutline=1;size=15;" vertex="1" parent="1">
          <mxGeometry x="-55" y="-489" width="60" height="80" as="geometry" />
        </mxCell>
        <mxCell id="ZZ9XeQo50VW3FPfhGWlt-391" value="redis&lt;div&gt;KV storage&lt;/div&gt;" style="shape=cylinder3;whiteSpace=wrap;html=1;boundedLbl=1;backgroundOutline=1;size=15;" vertex="1" parent="1">
          <mxGeometry x="15" y="-489" width="60" height="80" as="geometry" />
        </mxCell>
        <mxCell id="ZZ9XeQo50VW3FPfhGWlt-396" style="edgeStyle=orthogonalEdgeStyle;rounded=0;orthogonalLoop=1;jettySize=auto;html=1;entryX=0.142;entryY=0.982;entryDx=0;entryDy=0;entryPerimeter=0;" edge="1" parent="1" source="ZZ9XeQo50VW3FPfhGWlt-118" target="ZZ9XeQo50VW3FPfhGWlt-395">
          <mxGeometry relative="1" as="geometry" />
        </mxCell>
        <mxCell id="ZZ9XeQo50VW3FPfhGWlt-398" style="edgeStyle=orthogonalEdgeStyle;rounded=0;orthogonalLoop=1;jettySize=auto;html=1;entryX=0.861;entryY=0.982;entryDx=0;entryDy=0;entryPerimeter=0;" edge="1" parent="1" source="ZZ9XeQo50VW3FPfhGWlt-111" target="ZZ9XeQo50VW3FPfhGWlt-395">
          <mxGeometry relative="1" as="geometry" />
        </mxCell>
        <mxCell id="ZZ9XeQo50VW3FPfhGWlt-399" value="" style="rounded=1;whiteSpace=wrap;html=1;" vertex="1" parent="1">
          <mxGeometry x="-320" y="970" width="690" height="110" as="geometry" />
        </mxCell>
        <mxCell id="ZZ9XeQo50VW3FPfhGWlt-400" value="mysql" style="shape=cylinder3;whiteSpace=wrap;html=1;boundedLbl=1;backgroundOutline=1;size=15;" vertex="1" parent="1">
          <mxGeometry x="-201" y="981" width="60" height="80" as="geometry" />
        </mxCell>
        <mxCell id="ZZ9XeQo50VW3FPfhGWlt-401" value="mysql" style="shape=cylinder3;whiteSpace=wrap;html=1;boundedLbl=1;backgroundOutline=1;size=15;" vertex="1" parent="1">
          <mxGeometry x="-126" y="981" width="60" height="80" as="geometry" />
        </mxCell>
        <mxCell id="ZZ9XeQo50VW3FPfhGWlt-402" value="HDFS" style="shape=cylinder3;whiteSpace=wrap;html=1;boundedLbl=1;backgroundOutline=1;size=15;" vertex="1" parent="1">
          <mxGeometry x="90" y="981" width="60" height="80" as="geometry" />
        </mxCell>
        <mxCell id="ZZ9XeQo50VW3FPfhGWlt-403" value="HDFS" style="shape=cylinder3;whiteSpace=wrap;html=1;boundedLbl=1;backgroundOutline=1;size=15;" vertex="1" parent="1">
          <mxGeometry x="165" y="981" width="60" height="80" as="geometry" />
        </mxCell>
        <mxCell id="ZZ9XeQo50VW3FPfhGWlt-404" value="redis&lt;div&gt;KV storage&lt;/div&gt;" style="shape=cylinder3;whiteSpace=wrap;html=1;boundedLbl=1;backgroundOutline=1;size=15;" vertex="1" parent="1">
          <mxGeometry x="-55" y="981" width="60" height="80" as="geometry" />
        </mxCell>
        <mxCell id="ZZ9XeQo50VW3FPfhGWlt-405" value="redis&lt;div&gt;KV storage&lt;/div&gt;" style="shape=cylinder3;whiteSpace=wrap;html=1;boundedLbl=1;backgroundOutline=1;size=15;" vertex="1" parent="1">
          <mxGeometry x="15" y="981" width="60" height="80" as="geometry" />
        </mxCell>
        <mxCell id="ZZ9XeQo50VW3FPfhGWlt-406" style="edgeStyle=orthogonalEdgeStyle;rounded=0;orthogonalLoop=1;jettySize=auto;html=1;entryX=0.143;entryY=0.973;entryDx=0;entryDy=0;entryPerimeter=0;" edge="1" parent="1" source="ZZ9XeQo50VW3FPfhGWlt-336" target="ZZ9XeQo50VW3FPfhGWlt-399">
          <mxGeometry relative="1" as="geometry" />
        </mxCell>
        <mxCell id="ZZ9XeQo50VW3FPfhGWlt-409" style="edgeStyle=orthogonalEdgeStyle;rounded=0;orthogonalLoop=1;jettySize=auto;html=1;entryX=0.861;entryY=0.991;entryDx=0;entryDy=0;entryPerimeter=0;" edge="1" parent="1" source="ZZ9XeQo50VW3FPfhGWlt-330" target="ZZ9XeQo50VW3FPfhGWlt-399">
          <mxGeometry relative="1" as="geometry" />
        </mxCell>
      </root>
    </mxGraphModel>
  </diagram>
</mxfile>
